<svg width="213" height="113" viewBox="0 0 213 113" fill="none" xmlns="http://www.w3.org/2000/svg">
<path d="M42.6134 54.6366C42.6134 60.2344 35.5214 63.8484 29.4964 63.8484C24.3923 63.8484 21.9104 61.0846 20.209 58.7473C16.9466 60.7311 13.4006 62.5746 10.068 62.7879C6.31148 63.0713 3.47292 61.7244 3.40276 58.4639C3.25952 54.1399 10.068 51.8026 15.0318 51.306C6.73536 50.3126 0 44.7878 0 35.7864C0 24.0941 9.7844 17.0062 19.2852 17.0062C22.1209 17.0062 24.8162 17.573 27.2279 18.5664L39.3539 15.0225L39.7807 18.5664L28.3651 19.063C33.4692 21.5435 37.0153 26.2911 37.0153 32.7391C37.0153 44.0779 27.301 51.5192 17.73 51.5192C17.5166 51.5192 17.3032 51.5192 17.0197 51.4491C12.3394 51.6624 6.8786 53.2926 7.23525 57.5436C7.37849 59.8809 8.58291 61.5842 11.2051 61.5842C14.8213 61.6543 18.9344 58.8905 23.4714 56.1266C28.7188 53.0093 33.1155 49.3222 36.7317 49.1819C40.9851 49.1118 42.6164 51.5192 42.6164 54.6395L42.6134 54.6366ZM23.2551 50.2425C31.268 47.9052 33.5365 39.0469 31.0546 30.4719C28.5727 21.9671 21.9075 15.9457 13.8244 18.283C5.74143 20.6203 3.54308 29.4786 6.02499 38.0535C8.5069 46.5583 15.1721 52.6528 23.2551 50.2425ZM34.7409 50.596C32.5426 50.8794 28.0055 53.9266 23.8924 56.4772C22.8283 57.1141 21.7642 57.7539 20.7001 58.3909C22.0478 60.3746 24.2461 63.2816 29.4935 63.3518C34.9543 63.4219 38.0033 60.5178 38.2869 55.8403C38.4272 52.5798 37.5765 50.1724 34.7409 50.596V50.596Z" fill="#9FA2A7"/>
<path d="M79.5586 32.7397C79.5586 44.0785 69.8444 51.5198 60.3436 51.5198C50.8427 51.5198 42.6165 45.7088 42.6165 35.787C42.6165 24.0947 52.3307 17.0068 61.8315 17.0068C71.3324 17.0068 79.5586 22.9582 79.5586 32.7397ZM73.6038 30.4725C71.1219 21.9677 64.4567 15.9463 56.3737 18.2836C48.2906 20.6209 46.0923 29.4792 48.5742 38.0541C51.0561 46.5589 57.7213 52.6534 65.8043 50.2431C73.8874 47.9058 76.0857 39.0475 73.6038 30.4725Z" fill="#9FA2A7"/>
<path d="M93.2428 50.5965V51.0931H84.5225V50.5965C85.5866 49.9596 86.0835 48.8961 86.0835 46.4157V5.45466C86.0835 2.97421 85.8701 2.26426 84.5225 2.0539V1.48711L91.1877 0H91.6846V46.4157C91.6846 48.8961 92.1816 49.9596 93.2457 50.5965H93.2428Z" fill="#9FA2A7"/>
<path d="M133.444 51.0931H126.282V32.1027C124.935 40.3241 121.318 51.5197 111.391 51.5197C105.646 51.5197 98.5574 46.5588 98.2738 37.4872C97.847 19.9838 114.156 17.0067 122.029 17.0067C123.66 17.0067 125.078 17.2901 126.282 17.6436V5.45466C126.282 2.97421 126.069 2.26426 124.651 2.0539V1.48711L131.386 0H131.883V46.4156C131.883 48.8961 132.38 49.9595 133.444 50.5965V51.0931V51.0931ZM126.282 27.9218V18.0001C125.929 17.9299 124.297 17.3631 122.029 17.3631C115.15 17.5034 102.814 20.4805 103.805 38.5506C104.159 44.7152 108.485 51.3765 114.583 50.2429C122.526 48.6828 126.282 33.8731 126.282 27.9218Z" fill="#9FA2A7"/>
<path d="M172.939 39.8267C172.512 44.8577 168.045 51.519 157.977 51.519C147.909 51.519 138.762 46.7012 138.478 35.009C138.125 22.7499 149.257 17.4355 157.056 17.0089C163.084 16.7255 171.381 19.6296 172.372 28.2045H165.777C169.82 29.268 173.506 33.3787 172.939 39.8267V39.8267ZM162.871 28.2045H144.506C143.586 31.9617 143.796 36.1426 145.003 39.5433C147.626 46.9847 152.946 50.2452 160.178 49.9618C166.276 49.6784 171.594 45.4976 172.304 39.9699C173.155 32.5986 168.261 28.2075 162.874 28.2075L162.871 28.2045ZM144.647 27.6377H167.265C166.344 21.4731 160.813 16.5122 153.864 17.8591C149.043 18.7794 145.921 22.82 144.647 27.6377Z" fill="#9FA2A7"/>
<path d="M213 50.5966V51.0933H204.207V50.5966C205.341 49.9597 205.624 48.7531 205.411 46.4158C205.198 44.0785 204.134 32.0999 203.78 28.4157C203.283 23.1013 200.661 17.077 194.563 18.2836C186.62 19.8437 185.132 34.6534 185.132 40.6047V46.4158C185.132 48.8962 185.629 49.9597 186.763 50.5966V51.0933H177.97V50.5966C179.034 49.9597 179.531 48.8962 179.531 46.4158V22.4644C179.531 19.984 179.317 19.274 177.97 19.0636V18.567L184.635 17.0068H185.132V34.5803C186.053 26.6423 188.464 17.0068 197.682 17.0068C203.496 17.0068 208.46 20.9744 209.311 29.4792C210.021 36.3537 210.729 43.7951 211.012 46.4158C211.296 48.9663 211.933 49.9597 212.997 50.5966H213Z" fill="#9FA2A7"/>
<path d="M78.6089 65.8146L77.191 72.3327H76.8373C74.639 66.3084 70.102 61.9143 66.059 61.9143C61.2384 61.9143 58.5431 64.608 58.1894 67.5121C57.1954 77.0073 81.0937 74.4567 80.3132 86.0088C79.8864 91.6066 74.6419 95.7874 66.6992 95.7874C60.9549 95.7874 56.7014 93.8738 52.8718 91.0398L54.3598 83.9549H54.7135C57.1253 88.9158 62.4428 94.797 68.7543 94.797C73.8584 94.797 77.688 92.1763 78.1148 89.1291C79.4625 79.8471 54.7165 83.9549 56.4178 70.0656C56.985 65.4582 59.537 61.2773 67.2663 61.2773C70.9527 61.2773 75.7762 63.6146 78.6118 65.8117L78.6089 65.8146Z" fill="#9FA2A7"/>
<path d="M120.512 75.2407C120.939 92.8142 104.629 95.7913 96.6868 95.7913C95.1257 95.7913 93.7079 95.5079 92.5035 95.1544V107.343C92.5035 109.824 92.7169 110.534 94.0645 110.744V111.241L87.3993 112.801H86.9024V66.7388C86.9024 64.2584 86.689 63.5484 85.3413 63.3381V62.8414L92.0065 61.2812H92.5035V80.6983C93.781 72.4769 97.3971 61.2812 107.322 61.2812C113.136 61.2812 120.225 66.2421 120.509 75.2407H120.512ZM114.981 74.2474C114.627 68.0828 110.301 61.3514 104.203 62.5551C96.26 64.1152 92.5035 78.9249 92.5035 84.8762V94.7249C92.8572 94.8681 94.4884 95.4349 96.7569 95.3618C103.565 95.2917 115.972 92.3146 114.981 74.2444V74.2474Z" fill="#9FA2A7"/>
<path d="M157.171 95.3638H150.009V85.442C148.164 91.6767 144.264 95.7874 137.459 95.7874C131.644 95.7874 125.973 93.0236 125.049 87.9224C123.845 80.6944 128.168 76.4434 133.629 74.1733C131.784 70.0626 133.983 61.2773 143.484 61.2773C149.368 61.2773 155.61 64.3947 155.61 73.1128V90.6863C155.61 93.1667 156.107 94.2302 157.171 94.8671V95.3638V95.3638ZM150.009 84.1682V73.2559C149.655 73.1128 147.953 72.619 145.755 72.619C138.026 72.619 127.531 76.4463 130.58 88.9187C131.501 92.746 135.614 95.0833 139.16 94.8729C145.328 94.5194 148.591 89.2751 150.009 84.1711V84.1682ZM134.339 73.8929C138.169 72.4759 142.422 71.9792 145.755 71.9792C147.386 71.9792 148.804 72.2626 150.009 72.6161V72.1194C150.009 66.7349 147.88 61.9873 142.846 61.9873C136.465 61.9873 132.211 68.1519 134.337 73.8929H134.339Z" fill="#9FA2A7"/>
</svg>
